<svg width="12" height="12" viewBox="0 0 12 12" fill="none" xmlns="http://www.w3.org/2000/svg">
<g clip-path="url(#clip0_242_112)">
<path d="M9.11834 2.6261L9.11842 2.626C9.41403 2.27583 9.93743 2.22592 10.2949 2.51311C10.6593 2.80551 10.7125 3.33707 10.411 3.69517L10.4107 3.69551L5.62018 9.3736C5.62002 9.37379 5.61986 9.37397 5.61971 9.37416C5.46794 9.55427 5.24833 9.66116 5.01489 9.67237C5.01398 9.67241 5.01306 9.67246 5.01215 9.6725L4.98978 9.173C4.98431 9.17333 4.97883 9.17333 4.97336 9.17333C4.88267 9.17333 4.7954 9.1386 4.73141 9.07546L9.11834 2.6261ZM9.11834 2.6261L4.91357 7.6096L2.82684 5.57302C2.82683 5.57301 2.82682 5.573 2.82681 5.573C2.49877 5.25281 1.97248 5.25282 1.64444 5.57302C1.30964 5.89982 1.30964 6.43415 1.64444 6.76095L4.38025 9.43139C4.38064 9.43178 4.38104 9.43217 4.38143 9.43256L9.11834 2.6261Z" fill="#2A3135" stroke="#2A3135"/>
</g>
<defs>
<clipPath id="clip0_242_112">
<rect width="11.2" height="11.2" fill="white" transform="translate(0.399994 0.400024)"/>
</clipPath>
</defs>
</svg>
