<svg width="34" height="34" viewBox="0 0 34 34" fill="none" xmlns="http://www.w3.org/2000/svg">
<path d="M30.4512 25.3837C30.3245 24.7739 29.9661 24.253 29.4418 23.9166C28.9176 23.5804 28.2949 23.4718 27.6876 23.6107L24.8733 24.255V23.1046C25.4377 22.5729 26.0254 21.8787 26.4434 21.2442C27.1763 20.1317 27.695 18.9099 27.985 17.6136C28.3299 16.0713 28.3373 14.4386 28.0063 12.8914C27.9453 12.6067 27.6649 12.425 27.3802 12.4862C27.0954 12.547 26.9141 12.8273 26.9748 13.1122C27.2744 14.5115 27.2678 15.9885 26.9557 17.3833C26.6937 18.5546 26.2248 19.6585 25.5626 20.6639C25.3662 20.962 25.1281 21.2747 24.8733 21.5734V15.7281C24.8733 15.4369 24.6372 15.2008 24.346 15.2008H20.1744V9.56933C20.1744 9.27888 19.9393 9.04301 19.6489 9.04198L14.95 9.02612C14.9493 9.02612 14.9489 9.02612 14.9483 9.02612C14.8086 9.02612 14.6748 9.08133 14.5761 9.18C14.4768 9.27888 14.421 9.41319 14.421 9.55347V12.4829H10.2488C9.9577 12.4829 9.72142 12.719 9.72142 13.0102V18.2324H8.54644V17.5162C8.54644 17.2251 8.31037 16.989 8.01909 16.989H7.47815C7.38607 16.4821 7.33272 15.9671 7.32015 15.4529C7.28926 14.2027 7.48742 12.9796 7.90889 11.8169C8.00714 11.5458 8.11879 11.2756 8.24053 11.014C8.36351 10.7499 8.24898 10.4362 7.9851 10.3132C7.72102 10.1906 7.40729 10.3047 7.28452 10.5688C7.14959 10.8584 7.026 11.1575 6.91744 11.4575C6.45107 12.7439 6.23189 14.0971 6.26567 15.4789C6.27824 15.984 6.32644 16.4895 6.40822 16.989H4.02734C3.73607 16.989 3.5 17.2251 3.5 17.5164V26.7857C3.5 27.0769 3.73607 27.313 4.02734 27.313H8.01909C8.31037 27.313 8.54644 27.0769 8.54644 26.7857V26.2843H10.5302L18.5658 29.436C19.316 29.7304 20.1019 29.8785 20.8918 29.8785C21.4186 29.8785 21.9476 29.8125 22.4685 29.6801L28.7668 28.0793C29.9624 27.7755 30.7021 26.5914 30.4512 25.3837ZM23.8188 16.2555V24.4965L22.409 24.8193C22.2574 24.8539 22.1041 24.8813 21.95 24.9027C21.3625 24.9836 20.7631 24.9665 20.1818 24.8514C20.1793 24.8508 20.1768 24.8504 20.1744 24.8497V24.0501C20.5765 23.4502 20.7098 22.6897 20.499 21.9955C20.4403 21.8019 20.3569 21.615 20.2508 21.4426C20.2267 21.4035 20.2016 21.3651 20.1754 21.3277C20.1752 21.327 20.1748 21.3266 20.1744 21.326V16.2553H23.8188V16.2555ZM15.4757 10.0827L19.1199 10.0948V20.4884L17.0832 19.6455L15.4757 18.9799V10.0827ZM10.7761 13.5376H14.4203V18.543L13.7663 18.2724C13.7023 18.2458 13.6337 18.2322 13.5647 18.2322H10.7761V13.5376ZM7.49175 26.2583H4.55469V18.0435H7.04268C7.04371 18.0435 7.04495 18.0437 7.04618 18.0437C7.04721 18.0437 7.04804 18.0435 7.04907 18.0435H7.49175V26.2583ZM28.507 27.0572L22.2088 28.6579C21.1215 28.9342 19.995 28.8635 18.9508 28.4542L10.8225 25.2661C10.7611 25.242 10.6958 25.2298 10.6299 25.2298H8.54644V19.2871H13.4596L16.8717 20.6994L18.7388 21.4723C19.3994 21.7462 19.7156 22.5212 19.4447 23.181C19.3904 23.3134 19.323 23.4393 19.2336 23.5516C18.9034 23.9683 18.3598 24.152 17.8514 24.0284C17.8473 24.0274 17.8431 24.0264 17.839 24.0254C17.8085 24.0177 17.7783 24.0089 17.7482 23.999L14.1999 22.6349C14.1711 22.6238 14.1559 22.618 14.1559 22.618C13.8841 22.5134 13.5791 22.6491 13.4744 22.921C13.37 23.1927 13.5055 23.498 13.7774 23.6024C13.7774 23.6024 15.7781 24.3716 17.3036 24.9599C17.3343 24.9719 17.3648 24.983 17.3955 24.9933L18.567 25.4438C18.9211 25.58 19.2736 25.7155 19.6421 25.8097C20.2679 25.9695 20.9174 26.0338 21.5626 25.9986C21.9263 25.9788 22.2895 25.9285 22.6446 25.8474L24.4638 25.4311C24.4656 25.4306 24.4675 25.4298 24.4693 25.4294L27.923 24.6388C28.2516 24.5636 28.5888 24.6223 28.8723 24.8042C29.1561 24.9863 29.35 25.2683 29.4186 25.5983C29.5545 26.2519 29.1541 26.8928 28.507 27.0572Z" fill="#2A3135"/>
<path d="M10.2436 7.96118C10.3697 7.96118 10.4962 7.91628 10.5969 7.82523C11.5379 6.9753 12.6616 6.29737 13.8471 5.86458C15.1315 5.39574 16.5394 5.19572 17.919 5.28635C18.9063 5.35124 19.8736 5.56197 20.794 5.91257C21.0659 6.01619 21.3708 5.87982 21.4744 5.6075C21.5782 5.33538 21.4417 5.03072 21.1693 4.9271C20.1509 4.53901 19.0806 4.30582 17.9882 4.23393C16.4634 4.13382 14.9063 4.35506 13.4854 4.87395C12.1738 5.35268 10.9306 6.10271 9.89014 7.04245C9.67385 7.23773 9.65696 7.57124 9.85224 7.78732C9.95627 7.90268 10.0996 7.96118 10.2436 7.96118Z" fill="#2A3135"/>
<path d="M22.2147 11.7247C22.3147 11.8114 22.4378 11.8539 22.5604 11.8539C22.7077 11.8539 22.8544 11.7925 22.9588 11.6726L27.2974 6.67829C27.4886 6.45849 27.4651 6.1254 27.2453 5.93445C27.0253 5.74349 26.6924 5.76677 26.5015 5.98656L22.1626 10.9809C21.9715 11.2007 21.9949 11.5338 22.2147 11.7247Z" fill="#2A3135"/>
<path d="M26.1029 9.47009C25.3728 9.47009 24.779 10.064 24.779 10.794C24.779 11.5241 25.3728 12.1179 26.1029 12.1179C26.8329 12.1179 27.4268 11.5239 27.4268 10.794C27.4268 10.064 26.8329 9.47009 26.1029 9.47009ZM26.1029 11.0632C25.9544 11.0632 25.8336 10.9425 25.8336 10.794C25.8336 10.6457 25.9544 10.5248 26.1029 10.5248C26.2512 10.5248 26.3721 10.6457 26.3721 10.794C26.3721 10.9425 26.2512 11.0632 26.1029 11.0632Z" fill="#2A3135"/>
<path d="M23.1745 8.29616C23.9045 8.29616 24.4984 7.70228 24.4984 6.97224C24.4984 6.2422 23.9045 5.64832 23.1745 5.64832C22.4444 5.64832 21.8506 6.2422 21.8506 6.97224C21.8506 7.70228 22.4444 8.29616 23.1745 8.29616ZM23.1745 6.7028C23.323 6.7028 23.4437 6.82372 23.4437 6.97224C23.4437 7.12055 23.323 7.24147 23.1745 7.24147C23.026 7.24147 22.9052 7.12055 22.9052 6.97224C22.9052 6.82372 23.026 6.7028 23.1745 6.7028Z" fill="#2A3135"/>
<path d="M8.36887 9.20047C8.45333 9.40316 8.66118 9.53706 8.88139 9.52552C9.09912 9.5142 9.28987 9.36691 9.35723 9.16009C9.42521 8.95142 9.35105 8.7137 9.17658 8.58042C8.9988 8.44488 8.74914 8.43643 8.56292 8.56024C8.35631 8.69763 8.2735 8.97161 8.36887 9.20047Z" fill="#2A3135"/>
</svg>
