<svg width="34" height="34" viewBox="0 0 34 34" fill="none" xmlns="http://www.w3.org/2000/svg">
<path d="M5.63158 30.5H17.8506V11.5803H5.63158V30.5ZM6.4199 12.3686H17.0622V29.7117H6.4199V12.3686Z" fill="#2A3135"/>
<path d="M7.20821 18.6752H16.2739V13.157H7.20821V18.6752ZM7.99653 13.9453H15.4856V17.8869H7.99653V13.9453Z" fill="#2A3135"/>
<path d="M8.98195 19.8575H8.19363V20.6459H8.98195V19.8575Z" fill="#2A3135"/>
<path d="M10.5586 19.8575H9.77026V20.6459H10.5586V19.8575Z" fill="#2A3135"/>
<path d="M10.5586 21.4342H9.77026V22.2225H10.5586V21.4342Z" fill="#2A3135"/>
<path d="M12.1352 21.4342H11.3469V22.2225H12.1352V21.4342Z" fill="#2A3135"/>
<path d="M8.98195 21.4342H8.19363V22.2225H8.98195V21.4342Z" fill="#2A3135"/>
<path d="M12.1352 19.8575H11.3469V20.6459H12.1352V19.8575Z" fill="#2A3135"/>
<path d="M13.7119 19.8575H12.9235V20.6459H13.7119V19.8575Z" fill="#2A3135"/>
<path d="M13.7119 21.4342H12.9235V22.2225H13.7119V21.4342Z" fill="#2A3135"/>
<path d="M15.2885 21.4342H14.5002V22.2225H15.2885V21.4342Z" fill="#2A3135"/>
<path d="M15.2885 19.8575H14.5002V20.6459H15.2885V19.8575Z" fill="#2A3135"/>
<path d="M7.99653 23.405H7.20821V24.1933H7.99653V23.405Z" fill="#2A3135"/>
<path d="M9.57318 23.405H8.78486V24.1933H9.57318V23.405Z" fill="#2A3135"/>
<path d="M11.1498 23.405H10.3615V24.1933H11.1498V23.405Z" fill="#2A3135"/>
<path d="M7.99653 24.9817H7.20821V25.77H7.99653V24.9817Z" fill="#2A3135"/>
<path d="M9.57318 24.9817H8.78486V25.77H9.57318V24.9817Z" fill="#2A3135"/>
<path d="M11.1498 24.9817H10.3615V25.77H11.1498V24.9817Z" fill="#2A3135"/>
<path d="M7.99653 26.5583H7.20821V27.3467H7.99653V26.5583Z" fill="#2A3135"/>
<path d="M9.57318 26.5583H8.78486V27.3467H9.57318V26.5583Z" fill="#2A3135"/>
<path d="M11.1498 26.5583H10.3615V27.3467H11.1498V26.5583Z" fill="#2A3135"/>
<path d="M7.99653 28.135H7.20821V28.9233H7.99653V28.135Z" fill="#2A3135"/>
<path d="M9.57318 28.135H8.78486V28.9233H9.57318V28.135Z" fill="#2A3135"/>
<path d="M11.1498 28.135H10.3615V28.9233H11.1498V28.135Z" fill="#2A3135"/>
<path d="M11.9381 28.9233H16.2739V26.5583H11.9381V28.9233ZM12.7265 27.3467H15.4856V28.135H12.7265V27.3467Z" fill="#2A3135"/>
<path d="M16.2739 23.405H14.5002V24.1933H16.2739V23.405Z" fill="#2A3135"/>
<path d="M13.7119 23.405H11.9381V24.1933H13.7119V23.405Z" fill="#2A3135"/>
<path d="M16.2739 24.9817H14.5002V25.77H16.2739V24.9817Z" fill="#2A3135"/>
<path d="M13.7119 24.9817H11.9381V25.77H13.7119V24.9817Z" fill="#2A3135"/>
<path d="M14.6973 16.3102H8.78486V17.0985H14.6973V16.3102Z" fill="#2A3135"/>
<path d="M14.6973 14.7335H13.909V15.5218H14.6973V14.7335Z" fill="#2A3135"/>
<path d="M11.9381 3.5V10.792H12.7265V4.28832H27.3104V25.3759H18.6389V26.1642H28.0987V3.5H11.9381Z" fill="#2A3135"/>
<path d="M17.4564 5.86499H14.3031V6.65331H17.4564V5.86499Z" fill="#2A3135"/>
<path d="M19.8214 8.427H14.3031V9.21532H19.8214V8.427Z" fill="#2A3135"/>
<path d="M25.7338 8.427H20.6097V9.21532H25.7338V8.427Z" fill="#2A3135"/>
<path d="M17.0622 10.0037H14.3031V10.792H17.0622V10.0037Z" fill="#2A3135"/>
<path d="M22.1863 10.0037H17.8506V10.792H22.1863V10.0037Z" fill="#2A3135"/>
<path d="M20.2155 11.5803H18.6389V12.3686H20.2155V11.5803Z" fill="#2A3135"/>
<path d="M25.7338 13.157H18.6389V13.9453H25.7338V13.157Z" fill="#2A3135"/>
<path d="M25.7338 14.7335H18.6389V15.5218H25.7338V14.7335Z" fill="#2A3135"/>
<path d="M25.7338 16.3102H18.6389V17.0985H25.7338V16.3102Z" fill="#2A3135"/>
<path d="M25.7338 17.8868H18.6389V18.6752H25.7338V17.8868Z" fill="#2A3135"/>
<path d="M25.7338 23.011H24.9455V23.7993H25.7338V23.011Z" fill="#2A3135"/>
<path d="M24.1571 23.011H23.3688V23.7993H24.1571V23.011Z" fill="#2A3135"/>
<path d="M22.5805 23.011H21.7921V23.7993H22.5805V23.011Z" fill="#2A3135"/>
</svg>
