<svg width="34" height="34" viewBox="0 0 34 34" fill="none" xmlns="http://www.w3.org/2000/svg">
<path d="M30.05 10.7H27.1898C28.9313 9.29904 29.2073 6.75164 27.8063 5.0102C27.0374 4.05446 25.8766 3.49905 24.65 3.5H20.7044C19.1 3.50056 17.6473 4.44809 17 5.91605C16.3527 4.44809 14.9 3.50056 13.2956 3.5H9.35C7.11497 3.49826 5.30175 5.30872 5.3 7.5437C5.29905 8.77029 5.85446 9.93112 6.8102 10.7H3.95C3.70149 10.7 3.5 10.9015 3.5 11.15V15.65C3.5 15.8985 3.70149 16.1 3.95 16.1H4.85V30.05C4.85 30.2985 5.05149 30.5 5.3 30.5H28.7C28.9485 30.5 29.15 30.2985 29.15 30.05V16.1H30.05C30.2985 16.1 30.5 15.8985 30.5 15.65V11.15C30.5 10.9015 30.2985 10.7 30.05 10.7ZM23.8522 4.43735C23.8886 4.43195 23.9246 4.42475 23.9611 4.42025C24.075 4.4072 24.1897 4.40045 24.3044 4.4H24.65C26.3889 4.40197 27.7981 5.81114 27.8 7.55C27.7981 9.28886 26.3889 10.698 24.65 10.7H23.593C25.3327 9.29808 25.6065 6.75131 24.2046 5.01161C24.0459 4.81473 23.8692 4.63321 23.6767 4.4693C23.7347 4.45715 23.7932 4.44635 23.8522 4.43735ZM22.6844 4.86935C24.1691 5.76794 24.6443 7.70002 23.7456 9.18474C23.175 10.1276 22.1521 10.7026 21.05 10.7H19.4881L21.4186 6.2873C21.684 5.69527 22.1262 5.19993 22.6844 4.86935ZM19.4989 11.6H22.5719L24.6973 15.8511L26.1719 18.8H24.65C24.5084 18.8 24.375 18.8667 24.29 18.98L23.3954 20.1725L21.2557 15.4655L19.4989 11.6ZM20.1469 15.2H19.25V13.2272L20.1469 15.2ZM11.3156 4.86935C11.8738 5.19993 12.3161 5.69527 12.5815 6.2873L14.512 10.7H12.95C11.2145 10.7041 9.80439 9.30044 9.80034 7.56496C9.79776 6.46291 10.3727 5.44001 11.3156 4.86935ZM14.5012 11.6L12.7462 15.4637L10.6046 20.1725L9.71001 18.98C9.62501 18.8667 9.49164 18.8 9.35 18.8H7.8281L9.305 15.8511L11.4281 11.6H14.5012ZM6.2 7.55C6.20197 5.81114 7.61115 4.40197 9.35 4.4H9.6956C9.81036 4.40045 9.92499 4.4072 10.039 4.42025C10.0754 4.42475 10.1114 4.43195 10.1479 4.43735C10.2068 4.44635 10.2653 4.45715 10.3234 4.4693C8.62196 5.91746 8.41665 8.4707 9.86475 10.1721C10.0286 10.3646 10.2102 10.5414 10.4071 10.7H9.35C7.61115 10.698 6.20197 9.28886 6.2 7.55ZM4.4 15.2V11.6H10.4219L8.6219 15.2H4.4ZM14.75 29.6H5.75V16.1H8.1719L6.69725 19.0489C6.58616 19.2712 6.67633 19.5414 6.89863 19.6525C6.96118 19.6837 7.03008 19.7 7.1 19.7H9.125L10.34 21.32C10.425 21.4333 10.5584 21.5 10.7 21.5C10.7163 21.5 10.7325 21.4991 10.7486 21.4973C10.9062 21.4798 11.043 21.3806 11.1086 21.2363L13.445 16.1H14.75V29.6ZM14.75 15.2H13.8532L14.75 13.2272V15.2ZM13.4059 5.92685C13.1438 5.33054 12.7411 4.80663 12.2323 4.4H13.2956C14.5471 4.4 15.6798 5.14081 16.1815 6.2873L16.5086 7.03565L15.2 10.0273L13.4059 5.92685ZM18.35 29.6H15.65V11.6H18.35V29.6ZM15.8881 10.7L17.8186 6.2873C18.3202 5.14081 19.453 4.4 20.7044 4.4H21.77C21.2612 4.80663 20.8584 5.33054 20.5964 5.92685L18.5057 10.7H15.8881ZM28.25 29.6H19.25V16.1H20.555L22.8905 21.2363C22.9562 21.3806 23.0929 21.4798 23.2505 21.4973C23.2669 21.4992 23.2835 21.5001 23.3 21.5C23.4417 21.5 23.575 21.4333 23.66 21.32L24.875 19.7H26.9C27.1485 19.7014 27.3511 19.501 27.3525 19.2525C27.3529 19.1818 27.3366 19.1121 27.305 19.0489L25.8281 16.1H28.25V29.6ZM29.6 15.2H25.3781L23.5781 11.6H29.6V15.2Z" fill="#2A3135"/>
</svg>
